/* XPM */
static char *qx1[] = {
/* width height num_colors chars_per_pixel */
"    79    57      247            2",
/* colors */
".. c #aab6aa",
".# c #aab6aa",
".a c #aab6aa",
".b c #aab6aa",
".c c #aab6aa",
".d c #aa91aa",
".e c #aa91aa",
".f c #aa91aa",
".g c #aab6aa",
".h c #aab6aa",
".i c #556d55",
".j c #556d55",
".k c #aa91aa",
".l c #aab6aa",
".m c #aa91aa",
".n c #aa91aa",
".o c #aa91aa",
".p c #aab6aa",
".q c #aa91aa",
".r c #556d55",
".s c #556d55",
".t c #556d55",
".u c #aa91aa",
".v c #aab6aa",
".w c #556d55",
".x c #556d55",
".y c #556d55",
".z c #556d55",
".A c #aa91aa",
".B c #aa91aa",
".C c #556d55",
".D c #556d55",
".E c #556d55",
".F c #aa91aa",
".G c #aa91aa",
".H c #556d55",
".I c #556d55",
".J c #556d55",
".K c #556d55",
".L c #556d55",
".M c #556d55",
".N c #aab6aa",
".O c #aa91aa",
".P c #aab6aa",
".Q c #aa91aa",
".R c #aa91aa",
".S c #aab6aa",
".T c #aa91aa",
".U c #556d55",
".V c #aa91aa",
".W c #aab6aa",
".X c #aa91aa",
".Y c #aa91aa",
".Z c #556d55",
".0 c #556d55",
".1 c #aa91aa",
".2 c #556d55",
".3 c #aab6aa",
".4 c #aab6aa",
".5 c #aab6aa",
".6 c #aa91aa",
".7 c #aa91aa",
".8 c #aab6aa",
".9 c #aab6aa",
"#. c #556d55",
"## c #aa91aa",
"#a c #aa91aa",
"#b c #556d55",
"#c c #aa91aa",
"#d c #aab6aa",
"#e c #aa91aa",
"#f c #aa91aa",
"#g c #aab6aa",
"#h c #aa91aa",
"#i c #556d55",
"#j c #aa91aa",
"#k c #aa91aa",
"#l c #556d55",
"#m c #aa91aa",
"#n c #aa91aa",
"#o c #556d55",
"#p c #aa91aa",
"#q c #556d55",
"#r c #aa91aa",
"#s c #556d55",
"#t c #556d55",
"#u c #aa91aa",
"#v c #aa91aa",
"#w c #aa91aa",
"#x c #aa91aa",
"#y c #aa91aa",
"#z c #aa91aa",
"#A c #aa91aa",
"#B c #aa91aa",
"#C c #aab6aa",
"#D c #aab6aa",
"#E c #aa91aa",
"#F c #aa91aa",
"#G c #aa91aa",
"#H c #aa91aa",
"#I c #aa91aa",
"#J c #ffdaff",
"#K c #ffdaff",
"#L c #aab6ff",
"#M c #ffdaff",
"#N c #ffdaff",
"#O c #aab6ff",
"#P c #ffdaff",
"#Q c #ffdaff",
"#R c #ffdaff",
"#S c #aab6ff",
"#T c #ffdaff",
"#U c #aab6ff",
"#V c #ffffff",
"#W c #ffffff",
"#X c #ffffff",
"#Y c #ffffff",
"#Z c #ffffff",
"#0 c #ffffff",
"#1 c #ffffff",
"#2 c #aa91aa",
"#3 c #ffdaff",
"#4 c #aab6ff",
"#5 c #aab6ff",
"#6 c #aab6ff",
"#7 c #aab6ff",
"#8 c #aab6ff",
"#9 c #aab6ff",
"a. c #aab6ff",
"a# c #ffdaff",
"aa c #ffdaff",
"ab c #aab6ff",
"ac c #aab6ff",
"ad c #aab6ff",
"ae c #aab6ff",
"af c #ffdaff",
"ag c #ffffff",
"ah c #ffffff",
"ai c #aa91aa",
"aj c #aa91aa",
"ak c #aa91aa",
"al c #aa91aa",
"am c #aa91aa",
"an c #aa91aa",
"ao c #aa91aa",
"ap c #aa91aa",
"aq c #aa91aa",
"ar c #aa91aa",
"as c #aa91aa",
"at c #aa91aa",
"au c #aa91aa",
"av c #aa91aa",
"aw c #aab6aa",
"ax c #aab6aa",
"ay c #ffdaff",
"az c #ffdaff",
"aA c #ffdaff",
"aB c #ffdaff",
"aC c #ffdaff",
"aD c #ffdaff",
"aE c #ffdaff",
"aF c #ffdaff",
"aG c #ffdaff",
"aH c #ffdaff",
"aI c #ffdaff",
"aJ c #aab6aa",
"aK c #ffdaff",
"aL c #ffdaff",
"aM c #ffdaff",
"aN c #aab6aa",
"aO c #ffffff",
"aP c #aab6aa",
"aQ c #aa91aa",
"aR c #ffffff",
"aS c #ffffff",
"aT c #ffffff",
"aU c #ffdaff",
"aV c #aab6aa",
"aW c #ffdaff",
"aX c #ffdaff",
"aY c #ffdaff",
"aZ c #ffdaff",
"a0 c #ffffff",
"a1 c #aab6aa",
"a2 c #ffdaff",
"a3 c #ffdaff",
"a4 c #ffdaff",
"a5 c #ffdaff",
"a6 c #aab6aa",
"a7 c #ffffff",
"a8 c #ffdaff",
"a9 c #ffffff",
"b. c #ffdaff",
"b# c #ffffff",
"ba c #ffffff",
"bb c #ffffff",
"bc c #ffffff",
"bd c #ffdaff",
"be c #ffffff",
"bf c #aab6aa",
"bg c #ffdaff",
"bh c #aab6aa",
"bi c #ffffff",
"bj c #ffdaff",
"bk c #ffffff",
"bl c #ffffff",
"bm c #ffffff",
"bn c #ffffff",
"bo c #ffdaff",
"bp c #ffdaff",
"bq c #ffdaff",
"br c #ffdaff",
"bs c #ffffff",
"bt c #ffdaff",
"bu c #aab6aa",
"bv c #ffdaff",
"bw c #ffffff",
"bx c #aab6aa",
"by c #ffffff",
"bz c #ffffff",
"bA c #ffffff",
"bB c #ffdaff",
"bC c #ffffff",
"bD c #ffffff",
"bE c #ffffff",
"bF c #aa91aa",
"bG c #aa91aa",
"bH c #aa91aa",
"bI c #aa91aa",
"bJ c #aa91aa",
"bK c #aa91aa",
"bL c #aa91aa",
"bM c #ffdaff",
"bN c #aab6ff",
"bO c #aab6ff",
"bP c #ffdaff",
"bQ c #ffffff",
"bR c #ffffff",
"bS c #556d55",
"bT c #aa91aa",
"bU c #ffdaff",
"bV c #aab6ff",
"bW c #aab6ff",
"bX c #ffdaff",
"bY c #aa91aa",
"bZ c #aa91aa",
"b0 c #554855",
/* pixels */
".............................................................................................................................................................d",
"...d.d.d.d.i.i.d.d.d.d.d.d.d.d.db0.i.i.d.d.d.d.d.d.d.i.i.i.i.d.d.d.d.d.d.d.i.i.i.d.i.d.d.d.d.d.d.i.i.i.i.d.d.d.d.d.d.d.i.i.i.i.i.d.d.d.d.d.d.i.i.i.i.d.d.d.d.i",
"...d.d...d.d.i.d...d.d...d.d...i.i.d.i.d.d.....d.d...d.i.d.i.d.d.d...d...d.i.d.i.d.i.d.....d.d...d.i.d.i.i.d...d...d...i.d.d.i.d.d.d.....d...i.db0.d.i.d.....i",
".....d.d.....d...d...d.....d.......d...d...d.d...d.d.....d.d.d...d...d.d...d...d...d...d...d.d.d.....d.....d.d...d.d...d.d...d...d...d.d.d...d...d.....d.d...i",
"...d.....d...d.......i.d.d...d...d.........i...d.....d...d.......i.d.....d.............i.d.......d.....d.d...i.d.....d.........d...i.d.......d...d...d...i...i",
"...d...i.i.i.d.i.d.i.d.i.....i.i.d.i.d.i.d.i.d...d.i.i.d.i.d.i.d.i.d...d.i.i.d.i.i.d.i.i.d.....i.i.d.i.d.i.d.i.d.......d.i.i.d.i...d.d.d.....d.i.d.i.....d.d.i",
".....d.i.d.d.i.d.i.d.i.d...d.i.d.i.d.i.d.d.i.d.d.i.d.i.d.i.d.i.d.i.d.d.i.d.i.d.d.i.d.db0.d...d.i.d.i.d.i.d.d.i.d...i.i.d.i.d.i.d.db0.d...i.i.d.i.d.d.i.db0...i",
"...d.d.d.d.i...d.d.d.d...d.d.d.d.d.d.d.i.d.i...d.d.i.d.d.d.i.d.i.d.d...d.i.d.i.d.d.i.d.i.d.d.i.d.d.d.i.d.i.d.i.d.d.d.d.i.d.d.d.i.d.i...d.d.d.i.d.d.i.d.d.d...i",
"...d..#L#L#J#L#L#L..#J#L..#L#L#L#J#V#V#V#V#V#V#V#V#V#V#V#V#V#V#V#V#V#V#V#V#V#V#V#V#V#V#V#V#V#V#V#V#V#V#V#V#V#V#V#V#V#V#V#V#V#V#V#V#V#V#V#V#V#V#V#V#V#V#V.....i",
"...d#J#L#L#L#L#L#L#L#L#J#L#L#L#L#L#V#V#V#V#V#V#V#V#V#V#V#V#V#V#V#V#V#V#V#V#V#V#V#V#V#V#V#V#V#V#V#V#V#V#V#V#V#V#V#V#V#V#V#V#V#V#V#V#V#V#V#V#V#V#V#V#V#V#V#V...i",
".....d.i...d.d.d.i...d.i.d.d.i...i.d.i.i.d.i.d.i.i.d.i.i.d.i.d.i.d.i.i.d.i.d.i.d.i.d.i.d.i.d.i.d.i.d.i.d.i.d.i.d.i.i.d.i.d.i.d.i.d.i.i.d.i.i.d.i.i.d.i.d.d...i",
"...i..#J........#J..#J..#V..#V..#J..#V#J..#J..#V#J..#V#J..#J..#J..#V#J..#J..#J..#J..#J..#J..#J..#J..#J..#J..#J..#V#J..#J..#J..#J..#V#J..#V#J..#V#J.....i.i...d",
"...d..#J..#J..#V#J#V#V#V#V#V#V#V#V#V#V#V#V#V#V#V#V#V#V#V#V#V#V#V#V#V#V#V#V#V#V#V#V#V#V#V#V#V#V#V#V#V#V#V#V#V#V#V#V#V#V#V#V#V#V#V#V#V#V#V#V#V#V#V#V#V...d.d...i",
"...d..#V#V..#J..#V#V#V#V#V#V#V#V#V#V#V#V#V#V#V#V#V#V#V#V#V#V#V#V#V#V#V#V#V#V#V#V#V#V#V#V#V#V#V#V#V#V#V#V#V#V#V#V#V#V#V#V#V#V#V#V#V#V#V#V#V#V#V#V#V#V...d.d...i",
"...d..#V..#V..#V..#V#V#V#V#V#V#V#V#V#V#V#V#V#V#V#V#V#V#V#V#V#V#V#V#V#V#V#V#V#V#V#V#V#V#V#V#V#V#V#V#V#V#V#V#V#V#V#V#V#V#V#V#V#V#V#V#V#V#V#V#V#V#V#V#V...d.i...d",
"...i#J..#J..#V..........................#V#V#V#V#V#V#V#V#V#V#V#V#V#V#V#V#V#V#V#V#V#V#V#V#V#V#V#V#V#V#V#V#V#V#V#V#V#V#V#V#V#V#V#V#V#V#V#V#V#V#V#V#V#V...d.d...i",
"...d..#V#V..#V#J..#V#V#V#V#V#V#V#V#V#V#V#V#V#V#V#V#V#V#V#V#V#V#V#V#V#V#V#V#V#V#V#V#V#V#V#V#V#V#V#V#V#V#V#V#V#V#V#V#V#V#V#V#V#V#V#V#V#V#V#V#V#V#V#V#V...d.i...d",
"...d..#V..#J..#V#V#V#V#V#V#V#V#V#V#V#V#V#V#V#V#V#V#V#V#V#V#V#V#V#V#V#V#V#V#V#V#V#V#V#V#V#V#V#V#V#V#V#V#V#V#V#V#V#V#V#V#V#V#V#V#V#V#V#V#V#V#V#V#V#V#V...d.d...i",
"...i#J#J....#V......#J..............#J#J#V#V#V#V#V#V#V#V#V#V#V#V#V#V#V#V#V#V#V#V#V#V#V#V#V#V#V#V#V#V#V#V#V#V#V#V#V#V#V#V#V#V#V#V#V#V#V#V#V#V#V#V#V#V...i.d...i",
"...d..#V#V#J..#V#V#J..#V#V#J#V#J#J#V#V#V#V#V#V#V#V#V#V#V#V#V#V#V#V#V#V#V#V#V#V#V#V#V#V#V#V#V#V#V#V#V#V#V#V#V#V#V#V#V#V#V#V#V#V#V#V#V#V#V#V#V#V#V#V#V...d.i...d",
"...d..#J....#V....#V#V#V#V#V#V#V#V#V#V#V#V#V#V#V#V#V#V#V#V#V#V#V#V#V#V#V#V#V#V#V#V#V#V#V#V#V#V#V#V#V#V#V#V#V#V#V#V#V#V#V#V#V#V#V#V#V#V#V#V#V#V#V#V#V...d.d...i",
"...i#J..#V#V....#J..#J#J#V#V#V#V#V#V#V#V#V#V#V#V#V#V#V#V#V#V#V#V#V#V#V#V#V#V#V#V#V#V#V#V#V#V#V#V#V#V#V#V#V#V#V#V#V#V#V#V#V#V#V#V#V#V#V#V#V#V#V#V#V#V...d.i...i",
"...d..#V..#J#J..#V..#V..#V#V#V#V#V#V#V#V#V#V#V#V#V#V#V#V#V#V#V#V#V#V#V#V#V#V#V#V#V#V#V#V#V#V#V#V#V#V#V#V#V#V#V#V#V#V#V#V#V#V#V#V#V#V#V#V#V#V#V#V#V#V...d.d...d",
"...d....#J......#J..#J..#V#V#V#V#V#V#V#V#V#V#V#V#V#V#V#V#V#V#V#V#V#V#V#V#V#V#V#V#V#V#V#V#V#V#V#V#V#V#V#V#V#V#V#V#V#V#V#V#V#V#V#V#V#V#V#V#V#V#V#V#V#V...d.i...i",
"...i#J#V..#V#V#V..#V..#V..#V#J#V#V#V#V#V#V#V#V#V#V#V#V#V#V#V#V#V#V#V#V#V#V#V#V#V#V#V#V#V#V#V#V#V#V#V#V#V#V#V#V#V#V#V#V#V#V#V#V#V#V#V#V#V#V#V#V#V#V#V...d.d...i",
"...d..#J......#J....#J......#J#V#V#V#V#V#V#V#V#V#V#V#V#V#V#V#V#V#V#V#V#V#V#V#V#V#V#V#V#V#V#V#V#V#V#V#V#V#V#V#V#V#V#V#V#V#V#V#V#V#V#V#V#V#V#V#V#V#V#V...d.i#J.i",
"...d....#V#J....#J#V..#V#V#V#V#V#V#V#V#V#V#V#V#V#V#V#V#V#V#V#V#V#V#V#V#V#V#V#V#V#V#V#V#V#V#V#V#V#V#V#V#V#V#V#V#V#V#V#V#V#V#V#V#V#V#V#V#V#V#V#V#V#V#V...i.d...i",
"...i#J#V..#V#V..#V#V#J#V#V#V#V#V#V#V#V#V#V#V#V#V#V#V#V#V#V#V#V#V#V#V#V#V#V#V#V#V#V#V#V#V#V#V#V#V#V#V#V#V#V#V#V#V#V#V#V#V#V#V#V#V#V#V#V#V#V#V#V#V#V#V..#V#V...i",
"...d....#J....#J......#V#V#V#V#V#V#V#V#V#V#V#V#V#V#V#V#V#V#V#V#V#V#V#V#V#V#V#V#V#V#V#V#V#V#V#V#V#V#V#V#V#V#V#V#V#V#V#V#V#V#V#V#V#V#V#V#V#V#V#V#V#V#V..#V#V.d.i",
"...d..#V..#V#J..#V#V..#J..#J#V#V#V#V#V#V#V#V#V#V#V#V#V#V#V#V#V#V#V#V#V#V#V#V#V#V#V#V#V#V#V#V#V#V#V#V#V#V#V#V#V#V#V#V#V#V#V#V#V#V#V#V#V#V#V#V#V#V#V#V..#J#V...i",
"...d..#V#J..#V..#V..#V#J..#V#V#V#V#V#V#V#V#V#V#V#V#V#V#V#V#V#V#V#V#V#V#V#V#V#V#V#V#V#V#V#V#V#V#V#V#V#V#V#V#V#V#V#V#V#V#V#V#V#V#V#V#V#V#V#V#V#V#V#V#V..#V#V...i",
"...i#J..#V........#V..........#V#V#V#V#V#V#V#V#V#V#V#V#V#V#V#V#V#V#V#V#V#V#V#V#V#V#V#V#V#V#V#V#V#V#V#V#V#V#V#V#V#V#V#V#V#V#V#V#V#V#V#V#V#V#V#V#V#V#V..#J#V...i",
"...d..#V#J#V#V#J..#V#J#V#V#V#J#V#V#V#V#V#V#V#V#V#V#V#V#V#V#V#V#V#V#V#V#V#V#V#V#V#V#V#V#V#V#V#V#V#V#V#V#V#V#V#V#V#V#V#V#V#V#V#V#V#V#V#V#V#V#V#V#V#V#V..#V#V...i",
"...d............#V........#V..#V#V#V#V#V#V#V#V#V#V#V#V#V#V#V#V#V#V#V#V#V#V#V#V#V#V#V#V#V#V#V#V#V#V#V#V#V#V#V#V#V#V#V#V#V#V#V#V#V#V#V#V#V#V#V#V#V#V#V..#J#V...i",
"...i#J#V#J..#V#J#J..#J#V..#V..................#J..#V#V#V#V#V#V#V#V#V#V#V#V#V#V#V#V#V#V#V#V#V#V#V#V#V#V#V#V#V#V#V#V#V#V#V#V#V#V#V#V#V#V#V#V#V#V#V#V#V..#V#V...i",
"...d..#V..#V#J..#V#V..#V#J#V#J#J#V#J#J#V#V#J#J#V#V#V#V#V#V#V#V#V#V#V#V#V#V#V#V#V#V#V#V#V#V#V#V#V#V#V#V#V#V#V#V#V#V#V#V#V#V#V#V#V#V#V#V#V#V#V#V#V#V#V..#J#V...i",
"...d....#J..........#V............#J..#V#V#V#V#V#V#V#V#V#V#V#V#V#V#V#V#V#V#V#V#V#V#V#V#V#V#V#V#V#V#V#V#V#V#V#V#V#V#V#V#V#V#V#V#V#V#V#V#V#V#V#V#V#V#V..#V#V...i",
"...i#J#V..#V#V#J..#V#J#J..#V#V#V#V#V#V#V#V#V#V#V#V#V#V#V#V#V#V#V#V#V#V#V#V#V#V#V#V#V#V#V#V#V#V#V#V#V#V#V#V#V#V#V#V#V#V#V#V#V#V#V#V#V#V#V#V#V#V#V#V#V..#J#V...i",
"...d..#J..#V..#V..#V..#V#V..#V#V#V#V#V#V#V#V#V#V#V#V#V#V#V#V#V#V#V#V#V#V#V#V#V#V#V#V#V#V#V#V#V#V#V#V#V#V#V#V#V#V#V#V#V#V#V#V#V#V#V#V#V#V#V#V#V#V#V#V..#V#V...i",
"...i#J..#V......#J......#J........#V#V#V#V#V#V#V#V#V#V#V#V#V#V#V#V#V#V#V#V#V#V#V#V#V#V#V#V#V#V#V#V#V#V#V#V#V#V#V#V#V#V#V#V#V#V#V#V#V#V#V#V#V#V#V#V#V..#J#V...i",
"...d..#V#J#V#J..#V#J#V#V#V#V#V#V#V#V#V#V#V#V#V#V#V#V#V#V#V#V#V#V#V#V#V#V#V#V#V#V#V#V#V#V#V#V#V#V#V#V#V#V#V#V#V#V#V#V#V#V#V#V#V#V#V#V#V#V#V#V#V#V#V#V..#V#V...i",
"...d..#V......#V#J..#V#V#V#V#V#V#V#V#V#V#V#V#V#V#V#V#V#V#V#V#V#V#V#V#V#V#V#V#V#V#V#V#V#V#V#V#V#V#V#V#V#V#V#V#V#V#V#V#V#V#V#V#V#V#V#V#V#V#V#V#V#V#V#V..#J#V...i",
"...i#J#V..#J..#J....#J..............#J....#J..#J........#J#V#V#V#V#V#V#V#V#V#V#V#V#V#V#V#V#V#V#V#V#V#V#V#V#V#V#V#V#V#V#V#V#V#V#V#V#V#V#V#V#V#V#V#V#V..#V#V...i",
"...d..#V....#V..#V..#V#V#V#V#V#V#V#V#V#J#V#V#V#V#V#V#V#J#V#V#V#V#V#V#V#V#V#V#V#V#V#V#V#V#V#V#V#V#V#V#V#V#V#V#V#V#V#V#V#V#V#V#V#V#V#V#V#V#V#V#V#V#V#V..#J#V...i",
"...d..#J..#J....#J#V#V#V#V#V#V#V#V#V#V#V#V#V#V#V#V#V#V#V#V#V#V#V#V#V#V#V#V#V#V#V#V#V#V#V#V#V#V#V#V#V#V#V#V#V#V#V#V#V#V#V#V#V#V#V#V#V#V#V#V#V#V#V#V#V..#V#V...i",
"...i#J..#J#V..#V....#V....#J#J#V#V#V#V#V#V#V#V#V#V#V#V#V#V#V#V#V#V#V#V#V#V#V#V#V#V#V#V#V#V#V#V#V#V#V#V#V#V#V#V#V#V#V#V#V#V#V#V#V#V#V#V#V#V#V#V#V#V#V..#J#V...i",
"...d..#V..#V..#J#V..#V..#V#J#V#V#V#V#V#V#V#V#V#V#V#V#V#V#V#V#V#V#V#V#V#V#V#V#V#V#V#V#V#V#V#V#V#V#V#V#V#V#V#V#V#V#V#V#V#V#V#V#V#V#V#V#V#V#V#V#V#V#V#V..#V#V...i",
"...d..#J....#J........#J...........d........#J#V#V#V#V#V#V#V#V#V#V#V#V#V#V#V#V#V#V#V#V#V#V#V#V#V#V#V#V#V#V#V#V#V#V#V#V#V#V#V#V#V#V#V#V#V#V#V#V#V#V#V..#J#V...i",
"...i#J#V#V#V..#V#J#V#J#V#V..#V#J#V..#V#V#V#V#V#V#V#V#V#V#V#V#V#V#V#V#V#V#V#V#V#V#V#V#V#V#V#V#V#V#V#V#V#V#V#V#V#V#V#V#V#V#V#V#V#V#V#V#V#V#V#V#V#V#V#V..#V#V...i",
"...d..#V........#V......#J..#J....#V#V#V#V#V#V#V#V#V#V#V#V#V#V#V#V#V#V#V#V#V#V#V#V#V#V#V#V#V#V#V#V#V#V#V#V#V#V#V#V#V#V#V#V#V#V#V#V#V#V#V#V#V#V#V#V#V..#J#V...i",
"...i#J..#J..#V#J....#V#J..........#J..........#J..#V#V#V#V#V#V#V#V#V#V#V#V#V#V#V#V#V#V#V#V#V#V#V#V#V#V#V#V#V#V#V#V#V#V#V#V#V#V#V#V#V#V#V#V#V#V#V#V#V..#V#V...i",
"...d..#V#V#V#J#V#V#V#V#V#V#V#V#V#J#V#J#V#V#J#J#V#V#V#V#V#V#V#V#V#V#V#V#V#V#V#V#V#V#V#V#V#V#V#V#V#V#V#V#V#V#V#V#V#V#V#V#V#V#V#V#V#V#V#V#V#V#V#V#V#V#V..#V#V.d.i",
"...d..#V#V#V#V#V#V#V#V#V#V#V#V#V#V#V#V#V#V#V#V#V#V#V#V#V#V#V#V#V#V#V#V#V#V#V#V#V#V#V#V#V#V#V#V#V#V#V#V#V#V#V#V#V#V#V#V#V#V#V#V#V#V#V#V#V#V#V#V#V#V#V..#J#V...i",
"...d.d.d.i.d.i.d.i.d.i.d.i.d.i.d.i.d.i.d.i.d.i.d.i.d.i.d.i.d.d.i.d.i.d.d.i.d.i.d.d.i.d.i.d.d.i.d.i.d.d.i.d.i.d.d.d.d.d.d.d.d.d.d.d.d.d.d.i.d.d.d.i.d.d.d.d...i",
"...d..#V#V#V#V#V#V#V#V#V#V#V#V#V#V#V#V#V#V#V#V#V#V#V#V#V#V#V#V#V#V#V#V#V#V#V#V#V#V#V#V#V#V#V#V#V#V#V#V#V#V#V#V.......i.d...i.d..#L..#L#V#V....#V#V#V#V#V.....i",
"....#V#V#V#V#V#V#V#V#V#V#V#V#V#V#V#V#V#V#V#V#V#V#V#V#V#V#V#V#V#V#V#V#V#V#V#V#V#V#V#V#V#V#V#V#V#V#V#V#V#V#V#V#V#V.d...i...d.i.d#J#L#L#L#V#V....#V#V#V#V#V#V...i",
".d.i.d.i.i.d.i.i.d.i.i.d.i.d.i.d.i.d.i.d.i.d.i.d.i.d.i.d.i.d.i.d.i.d.i.d.i.d.i.d.i.d.i.d.i.d.i.d.i.d.i.d.i.d.i.d.i.i.i.d.i.i.i.d.i.d.i.d.i.d.i.d.i.d.i.d.i.d.i"
};
SIMPLE  =                    T                                                  BITPIX  =                    8                                                  NAXIS   =                    2                                                  NAXIS1  =                   79                                                  NAXIS2  =                   57                                                  HISTORY Written by XV 3.10                                                      END                                                                                                                                                                                                                                                                                                                                                                                                                                                                                                                                                                                                                                                                                                                                                                                                                                                                                                                                                                                                                                                                                                                                                                                                                                                                                                                                                                                                                                                                                                                                                                                                                                                                                                                                                                                                                                                                                                                                                                                                                                                                                                                                                                                                                                                                                                                                                                                                                                                                                             aaaaaaaaaaaaaaaaaaaaaaaaaaaaaaaaaaaaaaaaaaa°°°a°aμ½½½°°°a°°°°°a°a°½°½°°°°a°aaaaaaaaaaaaaaaaaaaaaaaaa°a°°°μ°a°°μμμμμ°a°aμ°μ°μ°°μ°°°°°μ°°°°°μ°°°a°°°°°°°°°μ°μ°°°μ°a°aμ°μμ°μ°°°a°°μ°°μ°°°°μ°°°°°°°°°μ°μ°a°°°°μ°°μ°°a°aμ°μ°°°°°μμ°μ°a°°μ°μ°°μ°°a°°°°°°μμ°μ°a°aμ°μ°μ°°μ°°°°°°°μ°°μ°μ°°°°μ°°a°°°°°μ°°μ°a°°μμ°μ°°a°aμ°°°°μ°°°μ°°°°°μ°a°°μ°°°°°°°a°aμ°μ°μμ°°μ°a°°°μ°°°°°°°°°°°μ°°°a°°°μ°°μμμμμμμ°μ°a°aμμ°μμ°μ°°°°°°°°°°μ°°°a°°°°°°°°°°°°°μ°a°°μμ°μμ°°a°aμ°°°°°°°°°°°μ°a°°μ°°°μ°°°a°°°μ°°μ°μ°μ°a°°°μ°°μ°°°°a°aμ°°μ°°a°°°μ°°μ°°a°a°°μ°°°μ°°μ°°°μ°aμa°aμ°°°°μ°°a°°°μ°°°μ°μ°°a°a°°°μμ°°°°°°aμ°°°μ°μμ°a°a°°μ°°°°°°a°°μ°μ°μμμ°a°°aμμ°°°°°μ°°°°°°°μμ°a°a°°°μ°°°a°°°μ°°a°°aμ°μ°°°°°°°°°°°°°°°°a°°°°°°a°°°°μ°°°a°°μ°μ°μ°°a°a°μ°°°°μ°μ°°°μ°μ°μ°μ°μ°μ°μ°μ°μ°μ°μ°μ°μ°μ°μ°μ°μ°μ°μ°μ°μ°μ°μ°μ°μ°°aa°°°a°a°aa°aaaaaaaaaaaaaaaaaaaaaaaaaaaaaaaaaa°a°μ½½½½½½½½μ½½½½½°a°°½½μ½½½°μ½°½½½μ°°a°a°°aa°aaa°aaaaaaaaaaa°aa°a°°aaaa°aaaaaaaaaaaaN°aaaa°aaaaN°aaaaN°a°°aaaaaa°°aaaaa°aaaaa°aaaaaa°°aaaaa°°°aaa°°°aa°°a°°°°°°°a°°°°°°a°°°°°°°a°°°°°°°°a°°°°°°a°°°°°°°a°°°°°°a°a°°°°°°°°°°°°°°°°°°°°°°°°°°°°°°°°°°°°°a°°a°°°aaa°°°aa°°aaa°°°aaa°°°aa°°°aNa°°a°aaNaaaaaaaaaaaaaaaaaaaaaaaa°°°°°°°°°°°°°°°°°°°°°°°°°°°°°°°°°°°°°°°°°°°°°°°°°°°°°°°°°°°°°°°°°°°°°°°°°°°°°°                                                                                                                                                                                                                                                                                                                                                                                                                                                                                                                                                                                                                                                                                                                                                                                                                                                                                                                                                                                                                                                                                                                                                                                                                                                                                                         